Coordinates
version=1
nRows=6
nColumns=34
inDegrees=yes

Units are S.I. units (second, meters, Newtons, ...)
If the header above contains a line with 'inDegrees', this indicates whether rotational values are in degrees (yes) or radians (no).

endheader
time	pelvis_tilt	pelvis_list	pelvis_rotation	pelvis_tx	pelvis_ty	pelvis_tz	hip_flexion_r	hip_adduction_r	hip_rotation_r	knee_angle_r	ankle_angle_r	subtalar_angle_r	mtp_angle_r	hip_flexion_l	hip_adduction_l	hip_rotation_l	knee_angle_l	ankle_angle_l	subtalar_angle_l	mtp_angle_l	lumbar_extension	lumbar_bending	lumbar_rotation	arm_flex_r	arm_add_r	arm_rot_r	elbow_flex_r	pro_sup_r	arm_flex_l	arm_add_l	arm_rot_l	elbow_flex_l	pro_sup_l
      6.56666670	     10.32560879	      0.58198276	      5.17560134	      0.07795313	      0.86569793	     -0.18533580	     38.36891677	     -1.52185619	     -4.43660462	      8.12792158	     -9.64811534	     -5.94130272	      0.00000000	     13.58942348	      5.75107759	      2.23065924	     47.41663094	     25.13165058	     -3.48192577	      0.00000000	    -26.12118248	     -1.91865784	      5.55292124	     80.21423388	      5.27847845	     63.19764893	    129.67372460	     97.41858858	    101.79047244	      7.95718499	     78.19289531	    114.74599897	     72.43822807
      6.58333330	     10.40922534	      0.85101592	      5.39721537	      0.07595665	      0.85909879	     -0.18477067	     38.62097495	     -1.76091533	     -4.29836909	      7.55725686	     -9.13694969	     -5.65185524	      0.00000000	     14.52257696	      6.02141629	      2.22938533	     49.27391331	     25.73169189	     -3.54353473	      0.00000000	    -27.03147851	     -2.31137680	      6.12775558	     80.27767810	      4.52548453	     63.01460799	    129.66956396	     97.46208350	    102.11023609	      8.37907366	     78.32230771	    115.53873008	     72.46320325
      6.60000000	     10.52883104	      1.04333910	      5.44093059	      0.07433961	      0.85202645	     -0.18583853	     38.84570120	     -1.88343898	     -4.43190789	      7.16743884	     -8.38355546	     -5.41158238	      0.00000000	     15.52165483	      6.16832166	      1.72686194	     51.24008628	     26.04817341	     -3.46054131	      0.00000000	    -27.94458938	     -2.59827421	      6.38453609	     80.62282969	      4.34993934	     62.68173133	    130.16943412	     97.50661026	    102.49702372	      8.75405096	     78.42870889	    116.03455716	     72.49346370
      6.61666670	     10.39736761	      1.39073129	      5.57832522	      0.06880744	      0.84396503	     -0.18607566	     39.40694975	     -2.26483361	     -4.16895149	      6.78271551	     -7.66152974	     -4.84315139	      0.00000000	     17.06228925	      6.52319279	      1.19849519	     53.25864619	     26.80783527	     -2.77509538	      0.00000000	    -28.86639537	     -3.00223760	      6.39929102	     81.03216331	      4.19313341	     62.93263786	    129.97647609	     97.60801066	    103.18336798	      9.35504976	     78.82157528	    116.84571590	     72.55822789
      6.63333330	     10.20221415	      1.70213249	      5.78440296	      0.06612525	      0.83526087	     -0.18614432	     40.08643016	     -2.65102456	     -3.42275279	      6.60398132	     -7.23837046	     -4.23768731	      0.00000000	     18.65926393	      6.86748022	      0.82892198	     55.29137482	     27.59036405	     -2.32864799	      0.00000000	    -29.68168696	     -3.34925733	      6.04138608	     81.69887881	      4.39387725	     62.95061021	    129.67410427	     97.70051419	    104.24784449	     10.17370539	     79.05966162	    118.02541638	     72.65600392
      6.65000000	      9.86202822	      2.01580485	      5.85421438	      0.06456486	      0.82685933	     -0.18537169	     40.84621478	     -2.86726575	     -2.75939357	      6.53737229	     -6.68363658	     -3.95390738	      0.00000000	     20.46674612	      7.18999790	      0.39715169	     57.49315471	     28.27206562	     -2.09423222	      0.00000000	    -30.36235271	     -3.71853819	      5.81979721	     82.23202970	      4.73797919	     63.12369311	    129.34662765	     97.80872525	    105.37459933	     10.72946256	     79.20480249	    119.38837181	     72.76616885
